<?xml version="1.0" encoding="utf-8"?>
<!-- Generator: Adobe Illustrator 13.0.0, SVG Export Plug-In  -->
<!DOCTYPE svg PUBLIC "-//W3C//DTD SVG 1.1//EN" "http://www.w3.org/Graphics/SVG/1.1/DTD/svg11.dtd" [
	<!ENTITY ns_flows "http://ns.adobe.com/Flows/1.0/">
]>
<svg version="1.1"
	 xmlns="http://www.w3.org/2000/svg" xmlns:xlink="http://www.w3.org/1999/xlink" xmlns:a="http://ns.adobe.com/AdobeSVGViewerExtensions/3.0/"
	 x="0px" y="0px" width="163px" height="39px" viewBox="-0.065 -0.932 163 39" enable-background="new -0.065 -0.932 163 39"
	 xml:space="preserve">
<defs>
</defs>
<path fill="#FFFFFF" d="M2.242,35.543l-0.417,2.106h-1.54l1.921-8.752h1.889l1.747,8.752H4.294l-0.412-2.106H2.242z M3.736,34.309
	l-0.321-1.9c-0.093-0.545-0.208-1.398-0.296-1.992H3.084c-0.097,0.601-0.228,1.478-0.325,1.999l-0.34,1.894H3.736z"/>
<path fill="#FFFFFF" d="M10.933,28.662v7.169c0,0.569,0.031,1.271,0.054,1.818H9.618L9.531,36.92H9.495
	c-0.227,0.446-0.727,0.83-1.324,0.83c-1.31,0-1.958-1.439-1.958-3.258c0-2.213,0.967-3.294,2.027-3.294
	c0.55,0,0.904,0.271,1.083,0.659h0.028v-3.195H10.933z M9.351,33.737c0-0.117,0-0.255-0.023-0.375
	c-0.062-0.436-0.292-0.825-0.665-0.825c-0.635,0-0.87,0.916-0.87,1.983c0,1.229,0.335,1.928,0.85,1.928
	c0.233,0,0.505-0.121,0.653-0.634c0.035-0.104,0.055-0.241,0.055-0.401V33.737z"/>
<path fill="#FFFFFF" d="M14.197,37.75c-1.459,0-2.375-1.168-2.375-3.256c0-2.279,1.174-3.295,2.412-3.295
	c1.438,0,2.336,1.225,2.336,3.26c0,2.614-1.414,3.292-2.36,3.292H14.197z M14.228,36.541c0.602,0,0.75-1.133,0.75-2.074
	c0-0.893-0.148-2.057-0.779-2.057c-0.667,0-0.809,1.164-0.809,2.057c0,1.077,0.178,2.074,0.823,2.074H14.228z"/>
<path fill="#FFFFFF" d="M17.457,28.662h1.581v3.304h0.027c0.309-0.489,0.727-0.768,1.327-0.768c1.193,0,1.793,1.351,1.793,3.122
	c0,2.236-0.896,3.43-2.053,3.43c-0.55,0-0.917-0.247-1.25-0.862h-0.036l-0.088,0.762h-1.354c0.022-0.53,0.052-1.249,0.052-1.818
	V28.662z M19.038,35.381c0,0.157,0.03,0.306,0.065,0.405c0.156,0.528,0.428,0.661,0.642,0.661c0.61,0,0.859-0.77,0.859-2.012
	c0-1.124-0.264-1.899-0.866-1.899c-0.302,0-0.552,0.325-0.64,0.678c-0.031,0.106-0.061,0.28-0.061,0.397V35.381z"/>
<path fill="#FFFFFF" d="M24.382,34.983c0.019,1.149,0.621,1.522,1.371,1.522c0.479,0,0.886-0.105,1.189-0.22l0.211,1.139
	c-0.42,0.175-1.067,0.293-1.687,0.293c-1.7,0-2.625-1.16-2.625-3.133c0-2.123,1.075-3.394,2.479-3.394
	c1.358,0,2.11,1.122,2.11,2.961c0,0.419-0.019,0.656-0.045,0.839L24.382,34.983z M25.975,33.87c0.007-0.888-0.251-1.516-0.756-1.516
	c-0.572,0-0.815,0.836-0.832,1.516H25.975z"/>
<polygon fill="#FFFFFF" points="27.354,24.149 27.381,24.149 27.381,0 17.261,0 "/>
<polygon fill="#FFFFFF" points="10.129,0 0,0 0,24.049 "/>
<polygon fill="#FFFFFF" points="13.696,8.9 9.268,19.296 13.989,19.296 15.879,24.149 20.102,24.149 "/>
<path fill="#FFFFFF" d="M28.755,1.015c0-0.535,0.437-0.933,0.946-0.933c0.508,0,0.938,0.398,0.938,0.933
	c0,0.534-0.431,0.932-0.938,0.932C29.191,1.947,28.755,1.549,28.755,1.015z M29.701,1.79c0.42,0,0.753-0.328,0.753-0.775
	c0-0.444-0.333-0.777-0.753-0.777c-0.426,0-0.759,0.333-0.759,0.777C28.942,1.462,29.275,1.79,29.701,1.79z M29.504,1.549h-0.162
	V0.48h0.409c0.25,0,0.377,0.09,0.377,0.302c0,0.192-0.123,0.275-0.28,0.298l0.308,0.469h-0.185l-0.282-0.462h-0.187V1.549z
	 M29.7,0.948c0.135,0,0.257-0.009,0.257-0.174c0-0.135-0.119-0.158-0.231-0.158h-0.221v0.332H29.7z"/>
<path fill="#FFFFFF" d="M58.22,15.701c-0.282,0.141-0.956,0.306-1.81,0.306c-2.451,0-3.712-1.534-3.712-3.563
	c0-2.423,1.726-3.758,3.869-3.758c0.833,0,1.466,0.157,1.75,0.317l-0.34,1.26C57.663,10.129,57.21,10,56.631,10
	c-1.262,0-2.249,0.772-2.249,2.359c0,1.419,0.836,2.313,2.26,2.313c0.496,0,1.02-0.094,1.345-0.232L58.22,15.701z"/>
<path fill="#FFFFFF" d="M65.079,12.895h-2.607v1.683h2.914v1.316h-4.511V8.803h4.363v1.313h-2.766v1.474h2.607V12.895z"/>
<path fill="#FFFFFF" d="M68.057,8.906c0.517-0.093,1.275-0.155,2.136-0.155c1.053,0,1.789,0.155,2.293,0.566
	c0.434,0.34,0.665,0.831,0.665,1.482c0,0.898-0.643,1.516-1.254,1.739v0.03c0.494,0.198,0.769,0.662,0.947,1.314
	c0.223,0.812,0.431,1.735,0.567,2.011h-1.641c-0.104-0.201-0.281-0.779-0.483-1.652c-0.197-0.896-0.508-1.125-1.168-1.138h-0.474
	v2.79h-1.588V8.906z M69.645,11.95h0.631c0.802,0,1.276-0.4,1.276-1.022c0-0.641-0.444-0.98-1.178-0.98
	c-0.39,0-0.61,0.022-0.729,0.053V11.95z"/>
<path fill="#FFFFFF" d="M77.181,10.148h-1.914V8.803h5.45v1.345h-1.936v5.746h-1.6V10.148z"/>
<path fill="#FFFFFF" d="M84.756,8.803v7.091h-1.598V8.803H84.756z"/>
<path fill="#FFFFFF" d="M87.734,8.803h4.324v1.313h-2.727v1.622h2.55v1.305h-2.55v2.851h-1.598V8.803z"/>
<path fill="#FFFFFF" d="M96.455,8.803v7.091h-1.602V8.803H96.455z"/>
<path fill="#FFFFFF" d="M103.642,12.895h-2.611v1.683h2.915v1.316h-4.513V8.803h4.365v1.313h-2.767v1.474h2.611V12.895z"/>
<path fill="#FFFFFF" d="M106.619,8.906c0.588-0.103,1.356-0.155,2.156-0.155c1.357,0,2.241,0.221,2.914,0.734
	c0.738,0.547,1.204,1.434,1.204,2.695c0,1.359-0.499,2.292-1.169,2.872c-0.75,0.621-1.896,0.917-3.283,0.917
	c-0.836,0-1.433-0.054-1.822-0.108V8.906z M108.218,14.683c0.136,0.032,0.369,0.032,0.558,0.032c1.461,0.01,2.421-0.788,2.421-2.484
	c0-1.523-0.863-2.25-2.254-2.25c-0.345,0-0.588,0.03-0.725,0.066V14.683z"/>
<path fill="#FFFFFF" d="M123.439,12.895h-2.608v1.683h2.914v1.316h-4.513V8.803h4.365v1.313h-2.767v1.474h2.608V12.895z"/>
<path fill="#FFFFFF" d="M130.153,15.894l-0.64-1.286c-0.266-0.494-0.433-0.861-0.632-1.274h-0.022
	c-0.147,0.413-0.326,0.78-0.557,1.274l-0.577,1.286h-1.831l2.05-3.589l-1.977-3.501h1.841l0.618,1.293
	c0.213,0.431,0.37,0.778,0.54,1.177h0.018c0.168-0.452,0.307-0.769,0.484-1.177l0.601-1.293h1.829l-1.994,3.463l2.103,3.628H130.153
	z"/>
<path fill="#FFFFFF" d="M134.444,8.896c0.499-0.083,1.19-0.145,2.17-0.145c0.987,0,1.703,0.188,2.177,0.579
	c0.451,0.348,0.747,0.933,0.747,1.63c0,0.703-0.221,1.294-0.642,1.683c-0.545,0.508-1.368,0.749-2.315,0.749
	c-0.209,0-0.4-0.013-0.547-0.045v2.548h-1.59V8.896z M136.034,12.116c0.138,0.029,0.306,0.041,0.537,0.041
	c0.853,0,1.379-0.428,1.379-1.144c0-0.653-0.441-1.043-1.253-1.043c-0.325,0-0.548,0.021-0.663,0.051V12.116z"/>
<path fill="#FFFFFF" d="M146.354,12.895h-2.608v1.683h2.914v1.316h-4.511V8.803h4.363v1.313h-2.767v1.474h2.608V12.895z"/>
<path fill="#FFFFFF" d="M149.331,8.906c0.518-0.093,1.273-0.155,2.137-0.155c1.057,0,1.788,0.155,2.291,0.566
	c0.436,0.34,0.668,0.831,0.668,1.482c0,0.898-0.644,1.516-1.255,1.739v0.03c0.494,0.198,0.771,0.662,0.948,1.314
	c0.22,0.812,0.435,1.735,0.567,2.011h-1.643c-0.104-0.201-0.282-0.779-0.482-1.652c-0.201-0.896-0.503-1.125-1.169-1.138h-0.474
	v2.79h-1.589V8.906z M150.92,11.95h0.633c0.802,0,1.272-0.4,1.272-1.022c0-0.641-0.442-0.98-1.176-0.98
	c-0.393,0-0.613,0.022-0.729,0.053V11.95z"/>
<path fill="#FFFFFF" d="M158.459,10.148h-1.918V8.803h5.45v1.345h-1.937v5.746h-1.596V10.148z"/>
<path fill="#FFFFFF" d="M53.178,21.445c0.471-0.09,1.087-0.158,1.869-0.158c0.96,0,1.664,0.223,2.114,0.627
	c0.414,0.359,0.67,0.904,0.67,1.577c0,0.682-0.201,1.218-0.593,1.61c-0.514,0.547-1.354,0.825-2.303,0.825
	c-0.291,0-0.558-0.012-0.781-0.066v3.017h-0.976V21.445z M54.154,25.066c0.211,0.057,0.49,0.078,0.805,0.078
	c1.184,0,1.888-0.579,1.888-1.6c0-1.003-0.704-1.486-1.778-1.486c-0.425,0-0.749,0.045-0.915,0.078V25.066z"/>
<path fill="#FFFFFF" d="M59.597,20.942h0.983v3.375h0.025c0.156-0.28,0.401-0.539,0.701-0.692c0.292-0.179,0.637-0.281,1.007-0.281
	c0.725,0,1.889,0.446,1.889,2.315v3.218h-0.983V25.77c0-0.883-0.324-1.61-1.255-1.61c-0.635,0-1.125,0.45-1.316,0.984
	c-0.058,0.138-0.068,0.278-0.068,0.469v3.265h-0.983V20.942z"/>
<path fill="#FFFFFF" d="M68.561,29.001c-1.454,0-2.59-1.07-2.59-2.781c0-1.811,1.194-2.875,2.681-2.875
	c1.553,0,2.606,1.13,2.606,2.773c0,2.013-1.398,2.883-2.684,2.883H68.561z M68.595,28.264c0.939,0,1.641-0.882,1.641-2.112
	c0-0.919-0.455-2.068-1.62-2.068c-1.148,0-1.654,1.073-1.654,2.098c0,1.188,0.672,2.083,1.623,2.083H68.595z"/>
<path fill="#FFFFFF" d="M74.243,22.175v1.293h1.406v0.75h-1.406v2.914c0,0.67,0.187,1.052,0.735,1.052
	c0.268,0,0.424-0.021,0.568-0.066l0.045,0.746c-0.189,0.068-0.49,0.136-0.871,0.136c-0.458,0-0.828-0.156-1.064-0.411
	c-0.268-0.301-0.379-0.787-0.379-1.42v-2.951H72.44v-0.75h0.838v-0.995L74.243,22.175z"/>
<path fill="#FFFFFF" d="M79.452,29.001c-1.455,0-2.593-1.07-2.593-2.781c0-1.811,1.194-2.875,2.682-2.875
	c1.554,0,2.606,1.13,2.606,2.773c0,2.013-1.4,2.883-2.686,2.883H79.452z M79.484,28.264c0.939,0,1.644-0.882,1.644-2.112
	c0-0.919-0.458-2.068-1.621-2.068c-1.153,0-1.653,1.073-1.653,2.098c0,1.188,0.67,2.083,1.619,2.083H79.484z"/>
<path fill="#FFFFFF" d="M83.81,27.882c0.302,0.182,0.818,0.382,1.31,0.382c0.704,0,1.04-0.348,1.04-0.804
	c0-0.468-0.28-0.729-0.997-0.995c-0.983-0.357-1.442-0.883-1.442-1.531c0-0.869,0.712-1.588,1.866-1.588
	c0.55,0,1.03,0.147,1.324,0.338l-0.237,0.703c-0.213-0.125-0.606-0.314-1.108-0.314c-0.581,0-0.892,0.336-0.892,0.738
	c0,0.459,0.311,0.659,1.014,0.927c0.929,0.347,1.421,0.814,1.421,1.632c0,0.962-0.746,1.632-2.011,1.632
	c-0.595,0-1.145-0.156-1.525-0.38L83.81,27.882z"/>
<path fill="#FFFFFF" d="M88.928,20.942h0.988v3.375h0.021c0.159-0.28,0.402-0.539,0.704-0.692c0.291-0.179,0.636-0.281,1.005-0.281
	c0.729,0,1.895,0.446,1.895,2.315v3.218h-0.987V25.77c0-0.883-0.326-1.61-1.254-1.61c-0.637,0-1.128,0.45-1.316,0.984
	c-0.056,0.138-0.066,0.278-0.066,0.469v3.265h-0.988V20.942z"/>
<path fill="#FFFFFF" d="M97.895,29.001c-1.453,0-2.592-1.07-2.592-2.781c0-1.811,1.195-2.875,2.683-2.875
	c1.555,0,2.604,1.13,2.604,2.773c0,2.013-1.397,2.883-2.682,2.883H97.895z M97.93,28.264c0.937,0,1.641-0.882,1.641-2.112
	c0-0.919-0.454-2.068-1.617-2.068c-1.154,0-1.654,1.073-1.654,2.098c0,1.188,0.667,2.083,1.616,2.083H97.93z"/>
<path fill="#FFFFFF" d="M102.389,25.232c0-0.688-0.011-1.25-0.041-1.764h0.88l0.055,0.928h0.024
	c0.391-0.674,1.038-1.052,1.911-1.052c1.319,0,2.301,1.107,2.301,2.75c0,1.945-1.196,2.906-2.458,2.906
	c-0.726,0-1.341-0.314-1.665-0.848h-0.022v2.938h-0.985V25.232z M103.374,26.677c0,0.132,0.011,0.279,0.041,0.401
	c0.169,0.683,0.776,1.153,1.468,1.153c1.04,0,1.645-0.85,1.645-2.094c0-1.082-0.558-2.01-1.6-2.01c-0.67,0-1.305,0.467-1.498,1.21
	c-0.023,0.131-0.055,0.275-0.055,0.399V26.677z"/>
<path fill="#FFFFFF" d="M110.858,21.276c1.133,0,2.036,0.921,2.036,2.07c0,1.17-0.903,2.081-2.044,2.081
	c-1.133,0-2.053-0.911-2.053-2.081c0-1.148,0.92-2.07,2.053-2.07H110.858z M110.85,21.595c-0.912,0-1.656,0.786-1.656,1.75
	c0,0.986,0.745,1.763,1.665,1.763c0.918,0.008,1.657-0.777,1.657-1.752c0-0.976-0.739-1.762-1.657-1.762H110.85z M110.465,24.557
	h-0.369v-2.315c0.19-0.026,0.375-0.053,0.65-0.053c0.351,0,0.581,0.072,0.716,0.174c0.142,0.102,0.214,0.256,0.214,0.478
	c0,0.306-0.202,0.488-0.452,0.561v0.017c0.204,0.041,0.345,0.224,0.388,0.563c0.055,0.355,0.114,0.5,0.148,0.575h-0.39
	c-0.054-0.075-0.107-0.29-0.154-0.594c-0.054-0.292-0.202-0.403-0.498-0.403h-0.254V24.557z M110.465,23.276h0.264
	c0.304,0,0.56-0.113,0.56-0.401c0-0.201-0.148-0.403-0.56-0.403c-0.118,0-0.204,0.009-0.264,0.019V23.276z"/>
<rect x="41.237" y="0.002" fill="#FFFFFF" width="0.656" height="37.486"/>
</svg>
